<mxfile host="Electron" modified="2024-02-11T20:19:58.719Z" agent="Mozilla/5.0 (Windows NT 10.0; Win64; x64) AppleWebKit/537.36 (KHTML, like Gecko) draw.io/22.1.2 Chrome/114.0.5735.289 Electron/25.9.4 Safari/537.36" etag="sG4jyYJLbU_wbvJAmBNs" version="22.1.2" type="device">
  <diagram id="rLw_26_rMAwIJSkzcu5J" name="Page-1">
    <mxGraphModel dx="1927" dy="1848" grid="1" gridSize="10" guides="1" tooltips="1" connect="1" arrows="1" fold="1" page="1" pageScale="1" pageWidth="850" pageHeight="1100" math="0" shadow="0">
      <root>
        <mxCell id="0" />
        <mxCell id="1" parent="0" />
        <mxCell id="nVp2ok_ncySKa2qWnjkd-2" value="" style="rounded=1;whiteSpace=wrap;html=1;fillColor=#dae8fc;strokeColor=#6c8ebf;strokeWidth=5;shadow=1;" parent="1" vertex="1">
          <mxGeometry x="-800" y="-1080" width="920" height="190" as="geometry" />
        </mxCell>
        <mxCell id="nVp2ok_ncySKa2qWnjkd-1" value="&lt;font size=&quot;1&quot; face=&quot;Helvetica&quot;&gt;&lt;b style=&quot;font-size: 110px&quot;&gt;&lt;font color=&quot;#2a3071&quot;&gt;RISC-V&lt;/font&gt;&lt;font color=&quot;#496182&quot;&gt; &lt;/font&gt;&lt;font color=&quot;#303030&quot;&gt;At&amp;nbsp; &amp;nbsp;m&lt;/font&gt;&lt;/b&gt;&lt;/font&gt;" style="text;html=1;strokeColor=none;fillColor=none;align=center;verticalAlign=middle;whiteSpace=wrap;rounded=0;fontFamily=Georgia;" parent="1" vertex="1">
          <mxGeometry x="-760" y="-1035.5" width="840" height="59.06" as="geometry" />
        </mxCell>
        <mxCell id="nVp2ok_ncySKa2qWnjkd-15" value="" style="ellipse;whiteSpace=wrap;html=1;aspect=fixed;fontFamily=Helvetica;fontSize=77;fontColor=#FF9933;strokeColor=#303030;strokeWidth=3;fillColor=#303030;" parent="1" vertex="1">
          <mxGeometry x="-146.5" y="-1020" width="40" height="40" as="geometry" />
        </mxCell>
        <mxCell id="nVp2ok_ncySKa2qWnjkd-16" value="" style="shape=image;verticalLabelPosition=bottom;labelBackgroundColor=default;verticalAlign=top;aspect=fixed;imageAspect=0;image=data:image/png,iVBORw0KGgoAAAANSUhEUgAAAMgAAADICAYAAACtWK6eAAAAAXNSR0IArs4c6QAAIABJREFUeF7tfQuYHFWV/znVkyFBBqMouC6IeRB1lgzputUZIrAE1OUNIqAsuiyIuyrLSwXX/6Lia8UH6Lo8/uwirm/RKIgroLw2Itk4mTrVQ8AgkoeIjz/yDBMymfR0nf2OW+N/0nOru6fmVnV19z3fl4/vY+qee87v3l9X3XvPPQfBikXAIhCLAFpsLAIWgXgELEHs7LAI1EHAEsROD4uAJYidAxaBZAjYN0gy3GyrLkHAEqRLBtq6mQwBS5BkuNlWXYKAJUiXDLR1MxkCliDJcLOtugQBS5AuGWjrZjIELEGS4WZbdQkCliBdMtDWzWQIWIIkw8226hIELEG6ZKCtm8kQsARJhptt1SUIWIJ0yUBbN5MhYAmSDDfbqksQsATJ2UB7nvcqZv4wAEwAQAUAngeA5wDgWUR8IgzDxwHg93PmzPnV0NCQ/H8rKSJgCZIiuElUK6UOBYCfNtn2GWbeiIgPAcBDiLi+UCjQ0NCQkMiKAQQsQQyAaFLFDAkS1/VvAGAtANznOM69w8PD9wMAm7SzW3RZguRspA0RpNarJwDgTkT80Zw5c25du3bt0zlzO7fmWILkbGiUUi9h5qMQsQcA5iBiXxiGezqOM5+Z90bEfZh5XwDYHwDmJjBf1jbyCfddAPgOET2ZQEfXNLEEad+hxlKptA8AvCoMw9cw818AgIuIBwHAC5p0S8hyByL+BzPfQkSyKWBlCgKWIJ03HZxisbgUEQ91HOcwZj4SAF7ahJt/YOYvI+I1RPTrJp7vikcsQTp/mFEpVUTEY8IwPAkRPQCoN+5VZv4+AFwRBMHPOh+e+h5agnTZDDjooIP+vFAonIaIfw0Ayxu4vxoR/9n3/bu6DKY/uWsJ0q0jL+xYvnzJxMTEOYj4twAg6xmtMPNPHMe51Pf9Nd0GV9sQxHXd1wDAwYh4AADIjo7jOM5TzPzLQqGwdt26db/stsEz5e/KlSt7nnvuuTcBwIWI+No4vYj4nwBwie/7D5vqO+96ck2QZcuWzS8UCu8GgHMAYFEDMB9m5hvmzZt33Zo1a0bzDnxe7fM8bzkzfwAA3hizVpGdrmsB4DIi2ppXP0zZlVeCyMLynQBwubwtZujsk8z8/iAI/mOG7ezjUxCQN7bjOJcx85tjiPL/AOB9RPTNTgYudwTp7+/fY/fdd/8mM58wG+AR8dtz5sw5e+3atWOz0dPtbV3XHUBE+aE6VocFM9/OzO8ol8u/60SsckWQwcHBPSuVyl2IWDIBNiLey8zHENF2E/q6WYfneW9g5isBYKkGh6eZ+dwgCL7daRjlhiCnnXZaYfPmzXcAgBxsGRNm/kEQBPI9bYP1ZomqjNGmTZvOR8SPAUBfrTpmvrFSqZz7wAMPPDPLrnLTPDcEcV33MkT8SANkiJnvRsRHZcIj4gJmfgMALGvQ7mIikl8/KwYQ8DzvRAlNiVH1GCKe6vv+OgNdtVxFLgjiuu5iRPw5APTGILIOEc+PA93zvEOY+eo6RBnr6elZMjQ0JGHgVmaBgGwJj46ODjf4URpn5vODILh+Fl3lomkuCOJ53peY+ewYRL7S19f3jtWrV0tgXawsXrx4txe+8IVfB4BTdQ9JjJHv++flAvU2NiIiyIcA4J8AQCKO68kNW7du/YeNGzeOt6vLLSeIUuqFACBbhrrQ7R8TkeyehM0ArJSaAwD3AIDcyquVbZVK5WXr16+XK6xWZolAqVQqhWH4VQB4dT1VzDw8MTFx/Pr16/8wyy5b0jwPBDkDAL6h8X6H4zhLhoeHH5sJMhI+Ua1W5XNN9+t2MhFJIJ4VAwisXLly7rZt2y5n5gsbBEBuYuajgyDYaKDbTFW0nCCu616HiHIoWCtfIaKzkqDhuu53EfEUTdvPEdH7kui0beIRUErJLuFXAGDPOjg94TjOccPDw7J+aRtpOUGUUvcCwGG1iEU7Id9LgqRSSoLvvlzbVg61giDQHngl6ce2+f8ILFu27IBCoXATABxYB5fnmfnUIAh+1C7Y5YEgv5BbcbWAOY5z4PDwsHwqzViUUoMAoLvLEBCRmrFC26ApBAYGBl7Q09PzRUQ8vU6DcUQ82ff925tS2uKH8kCQzQCwQPMGWeT7vvxtxlIqlZaFYVjWNBwhouKMFdoGM0JAKfVJAPg/9UjCzCcFQfDjGSluwcN5IIikpBnQEOTQpPcPPM87lplv1ei81/f9w1uAc9d1qZSSKOyrAKAQ4/wORDzR9/078wxOHghycxRaXYvTB4jo00nAq/ML9mUiijtvSdKVbVMHgejE/UYAmBfzmASS/hUR3ZdXIFtOEM/zLmXmT2gA+gURSaaOps5AJttHZyGynfiKWp3MfF4QBNfkdTA60S7XdY9ExB/WIcnTckkrr5ew8kCQIjMHMZPj3UR03UwmjlLqYgD4bEybxUS0aSb67LOzR6BYLL7OcRy5jRj3JtlSqVQOzuNhYssJIvArpdbHhFFvZ+bXNZtdw/O8lcwsCz9dTNcaItKdsM9+BlgNDRHwPO/1zCwkiUt2J8GNR+TtakIuCOK67tsQ8WsxKG9j5nOCIPhOvVHwPO9MZpa3jfZXiplPDIJABshKixDwPO8YuX5QJ4ZrFRHJDcbcSC4IAgCOUkqSLddLQ3MPM1+DiHdP3oVesWLFi8fHx1+PiBKEOO2wcRJlaeP7/utzg3oXG+J53jnM/MU6EFxERF/IC0R5IQi4rvtWRJRo3GZELuQ4ACCBjo3kmTAMi+VyWe6QWMkBAkqpjwPAB2NMqYRheHi5XJYfzJZLLgiydOnSF/X29o7odp5midDOMAyPLZfLd89Sj21uGAGllMRunRmj9jdhGLrlclmy0rdUckEQpZTE8JxsGIm2i/sx7H+u1cn9nfnz59/HzJIKVSe3EdFxrXai5QRp4ps0CUYPhGF4erlc3pCksW2TDQLFYnF/x3Fki//Fuh4R8Rzf97+UjTX6XlpKkFKptF8Yhg/GhElLkgW5RnsaALysSZB+DwCf7uvru6bRDcQm9dnHUkbAdd2jEVHCgmRNWStSg3FpK7PNt5QgSikJez4qZgyuIKJL+vv7e+fOnXs8Ip4EACsAYOGU+B65hiuXcdZEaTFvtTUuUp7RKaivt2hn5ruCIPirVmWlaRlBGpx9kJBBN9kl9cyjjz46f+fOndUDDjhgdNWqVdUUxsyqzBCB6J77kBQA0nXLzH/fqgQQLSFIdA9dEiDrMoqPRzsYdv2Q4SRtdVee5x3IzPLDqIuCeHLnzp1LWpFvqyUEcV33quhwb9q4MPOlQRDIfQIrXYaAUkqSZkuaU928uDoIgvOzhiRzgkhSZER8IOaewEhfX1/JLrCzngb56E8+n7ds2fKzmK1f+ZQuEpHMncwkc4IopST0Wbe/zWEYHpKXE9TMRsB2tAsCUfkFuS6tm5urieiILCHLlCBKKXFO8lbpXqFfCoJA6oBY6XIE6iUSjNIHZXZVN1OCuK4r27G6CkajlUplcR7vA3T5XG2J+wMDA3vPmTNHKobpYu2GiOjgrAzLjCCu6x6FiHHpXj5ERLpbhVnhYPvJGQJKqfcCgDbhOCIe5/v+bVmYnBlBonB2HfOl8MoBebsokwX4to94BCRr4+joqNz+fHntU4jo+75vpIZMozHIhCClUunwMAxXxxhzARFJ9gsrFoHaBft5zKydG1IYKYsEdJkQRCklN/mO14z/b7du3bqonbN/2zmdHgJRxv5HAGA/zVvkR77vH5Ne7/+rOXWCeJ73KmZ+KKavC4noX9N20upvXwSUUu8CgP+r8YALhcKr0y7/nTpBlFJyffICjYPPVCqV/Ww5gvadvFlYHq1FpPDRXrX9SdGktE/XUyXIihUr5u3cuVMW4bpSzp8ionrpKbPA3/bRBgjUSQQ42tPTs+/Q0JCExaciqRLEdd2zEFFXr7w6MTGx//333//bVLyySjsKgcHBwX0nJia2xGRD+TsiqpcEYlZYpE2Q1Yioy4V7CxFJTQkrFoGmEFBKSYnpaSmBmPknQRCsbEpJgodSI0h0W1AyiUzrI6stugR42CY5RSDKzniXbrHuOM7+M61E1qybqRHE87z3M7Mu+fTviEi27WaUc7dZh+xzHYuA5E6TcnzTDg6l1AIRfSoNz9MkyHBM2PKVRCT5c61YBGaEgFLqCgDQldB7kIiWzkhZkw+nQpDo8+rXMTYoIopLVt2k2R31GA4MDLx07ty58ycmJvoQUfb3pSLvM+Vy+clW3cXOI8J1CiNBoVBYuG7dOlnIG5VUCKKUkptfugPATUS02KgHbaZs2bJl83t6el4niZoBYJCZpfxcX4wbsn0pJerkvvY9PT0996S5pdkOUCqlpCxff62taZW2SIsgEq8vmShqpVs/rzCKZpb7LifG3LtuZn5KVaZbAOAG3/dlwSqpkbpKXNf9NCK+X+N0KonmjBMkOvl8OibL+mF5riaUwkwTYrwRET8MAMsM6ydm/mgQBHJDs2uIUifwday3t3evtWvXStUqY2KcIFEdCF3duWcXLlz4km5J07N8+fIlExMTko0+1azyUtoaEc/vlsJAUYogWZtNu0yVxvGBcYLEhQUg4k2+759ijNr5VYSe550tcUJ1KiqZtl7yEL8rCIJms+Ob7j9TfUopqRUjGTdr5RNE9CGTxhgniOd5P2Hmv9QYOeNyaiYdzUJX9OsmkafvyKI/TR/XLly48IJOf0vHRfimUQfGKEGiCSI7L9OqPDmOc+Dw8LDsQHSkSGDm+Pj4jVLauJUOypv62WefPaOT79gUi8WDHMeRchm1MkpEEhhr7BDaKEFc11VyHVJj+LNEJBm8O3IxKT8M27Ztu4mZT2glOSb7ZubvLVq06C2d+iaR/FmbN2+WIkrTtseZ+aAgCKTmpRExShCllHxaXF9rmSRryOL2lxFEZq4ElVL/3sLPKq3FiHiN7/tSmq4jxfO8u6TAa61zzPzOIAhkPIyIUYJ4nnc1M/+DhiCf9H3/UiMW50yJ53lvZ+YbcmbWpDlvJaJv5tS2WZnluu4nEFE3p/6ViC6clfIpjY0SRCn1UwCYVmqZmd/SqEqtKYey1CNbudVqVb6F4+p/Z2mOrq/nC4XC0jRCMFrtmOd5pzPztzR23EFEcSU1Zmy2aYJITbmXaN4gr/Z9X7K5d5LIIeAdaZ9zGADsh0SUi7WRAV/+pKJOXNZjRPQKU30ZI4jEGBUKBVk41cpEX1/fvE5LSO267smyY2RqINLUk2WitTT9mKo7us79vOa+EY+Nje25YcOGbSZsMUaQUqlUCsNwncaoR4hoiQljc6RDFuZlADgoRzbVM0XSdUp1ro7aRVRKSfTuKzWOG4sYN0YQ13XfjIhyLXIXkVCIIAiObZOJ1JSZUV2925t6OCcPyY5PEATaxOE5MXHGZiiltEGxUq7P9/0fzFihpoFJglyEiJ/XEOTfgiCQ3EYdI0qpVQBwajs5hIhf933/b9rJ5ka2xtVaN7nVa4wgnud9hpkv0Th1GRF9rJGz7fL3aK31+CxC1lvl6vaxsbF9TH2bt8qJqf3WCX03NueMESSOzQCQalqWrAfK87xTmPm7WfdrqL/jiUhKLneEuK6r/WqRTIxEdK4JJ40RxPO8H8SEWpxMRN83YWwedMQdhubBtiZs+BwR6e50N9E0f4/EnYWYjBw3SZC4KN4jiei/8gdvMos8z4tLRpFMYYatmPm/gyA4JMMuU+3K87w3MPMdmk7uJCLdjdYZ22OMIEopOVGetu2JiK7v+7Il2gki27sSrbxHmzrzFBFNO8htU1/Add3DEPFejf33EdFhJvwySRDJ4P7qWqMQsWNO0aPSYLJAb1upVqsvGhkZebZtHZhieNzZm8kCOyYJshEAFmkIssj3/c2dMCBR7FVbh8xUq9UFIyMjv+qE8VBKSS4sXWi7sTxZJgkiaUZ1MTD7E1Fcjqy2Gqc6913axg/T9yVa6bjruosRUQrs1MpGIjrAhG2pEyQMw1eWy2UhT9uLUsoFAGpzRwaI6IE29+GP5iul5ItFvlxqxVj+NZMEESZPSwpXrVaXjIyM6FjedmNkP7HyNWTFYrHfcRzdNe4NRPQXJqw1SRBtxrtOuoteLBZf6jjOH0wA30Id84loawv7N9a153lFZtalsR0hoqKJjkwSRLZydcnRjEVWmnB4ljpkm1d2gPacpZ5WNX+CiPZuVeem+1VKDQLAzzR6JXpZV3J8xiaYJMh9ADDtEAoRj/B9P64E9IwNbnUDpZTkyV3eajsS9m/sfCBh/0abKaXkMFAiemvlHiKadl89SefGCOK67i26lDeIeJrv++0auzQNU6WUJOWW5NxtJ4j4Wd/3dXlt284XMVgpdQYAfENj/CoimlaNKomTJglyAyK+vdYIRHyX7/v/lsS4PLZRSknpuJvzaFsjm9JIzdmozzT/rpSS6slSRblWchmsqA13R8QP+r7/z2kClaXuwcHBPScmJuQ0fW6W/Rro6/lKpbJPJ5XdVkp9FAAkMXitGEtBauwNopSSKFGpALSLMHPHXZjyPO9GydRiYNJmqeKrRPS3WXaYdl9KKamgfJbmq+V83/clN/KsxRhBPM87lZnlpl2t/JiIjp61pTlSUCeKNEdW7mpKGIaHl8tlXWBfbm1uZJjrutoqysx8YhAE/9mofTN/N0aQOmEYvyQiqaLUSSLbvcOyTmwTp9ZE0a2dlrRBYsr217xBlvq+/6CJsTFGkOXLl+9VrValbkOtjBPR7iYTCptwfLY6XNc9ARGNJAaYrS1NtD+KiHT3Jppoms9H+vv7e+fNm7cdAAq1FlYqlT1MrbWMEUSMjA7RphU26aSQ9ymDIXVAbmPmvH8+fp+ITs7nNE9uleu6A4h4v0bD40T0suSad21pmiDaw0IAeDMR6dYnpvxoiZ4oWE4G6QUtMaBxp6NhGC7tlGDRqe66rvs2RPya5vPqbt/3jVX1Mk2QawHg3ZpxM7bt1nhOZPuE53l/w8xfzbbXpnvryB8m8T4uowki/ovv++9pGqEGD5omiOS/kgpLtXIrER1vyui86VFKXQMARrJomPKNmT8fBMF7TenLmx6llKyp3lBrFzO/PQgC2f41IkYJ4rruwYi4VmPZ09Fd6I7aRZn0Uwq6bNmy5TvM/CYjozJLJcx8YxAEb+20jZGpeMcV0DGdA8EoQaKdBQmlnnbKzMz9QRDIvfWOlMWLF+82f/78b7aaJJL+dfv27Wdu2LBhZ0cCDQB1wty3LVy4cL7JylpGCSIDElcjpNMSyOkmX/Qm+YKuiFAWkzX6rLq4U98ckxh6nnceM19Vi2nui3hGBPkUAPyj5ttQXvt/ncVEaXUfruu+FRElQDOr3a1RADinE3cKdWOplJJgUQka3UUQ8aO+73/E5Pgbf4N4nncsM+vSWz69cOHCvU2+/kwCYVrX8uXLF1SrVfmVO8607hp9N4dh+J5O3MqNIcccAHgqpoCn8Qz2xgmilJJT86cBYLdaB8MwfG25XNYt4lOeQy1TL4eJxzDzZaYvWUmWRPnF7LQT8kYjpZQ6AgB0ZRy2jY2N7WV67WWcINFnlnYLDgA69jykwcBKubYjHMc5O1rEy49IEpGKSt8Lw/CGcrks9SA7clewHjBKqc8CgKyzdhFm/kEQBCclAbVem1QI4nnee5j5c5qOHyaiadkXTTuVZ339/f17zJs373AAOJKZZVtcAjn3irFZaj4+LFvnYRjeMzEx8VNTMUZ5xqgBQeKqSr2biK4z7VcqBFm2bNkBhULhlzpjwzBcVi6XdTE0pn1rG31ScwQA5juOsycicrVaHZV6j52SfcTUQNRJ0sCO4+w/PDz8mKm+JvWkQpDoMysuy8nlRPRPph2x+jofAdd1P4eI08JI5A3r+/5r00AgTYJ8AAAu1xj9ayJa0Ol79WkMVjfrXLlyZc/o6KiksP0zDQ4XEZHubvqsIUuNINE2pzZpdaclD5j1KFgFDRHwPO8kZtYVYgrDMNyvXC7/rqGSBA+kRhCxxXXdNYg47dVnsgJQAp9tkzZEQCn1Q92ZUhqn51PhSZsgZyGiLrJyQjLBE9Hv23CsrMkZI1AqlfYLw1B2r6bdHmTm04MgmFZ+3JSJqRIkOjSUV9+0W4ayPrGLdVPD2Nl6lFJXAoAudP/JsbGxPzd9OJjZG0Q6qlP08plKpbJft+/rd/bUnr13Sin5cZXt2z6NttSLkqb6BokI8ipmljB3XV8XEpGk8rRiEdAi4LruJYj4Gc0fq4i4JO3qZakTJCJJXIno3/b19S1evXr1Djs/LAK1CESf6LITuo8GHWP5d+shnwlBSqXS4WEYxmV4T20P20659kZAKSXXJuT6xDRBxEHf99el7WEmBBEnlFJSx0HqOdSK5LldSESS48iKReCPCBxyyCF9O3bskJ2raXFqzPyTIAhWZgFVZgRxXfcoRPxRzK9BRyW4zmLgOr0PpdTHAeCDOj+zTKOaGUGit4jkhtUVeH8+DMMlaZ2Gdvpk6jT/isXi/o7j/CImg/6dRCSFczKRTAlSby3CzF8LguDMTLy2neQaAaXUdwDgNJ2RzLwiCAJd2bVUfMqUINFbRBsyIJd/EPEw3/fXpOKpVdoWCNS5MQjM/L0gCE7N0pHMCRKVUpbM23K3uFYeGhsbW5bmyWiW4Nq+ZobAihUr5u3cuXO9rpw4AOyoVquvGRkZkYzumUnmBIneInGhA/LnjxGR3OG20mUIKKW0GXEEBkT8pO/7l2YNSasIIuEDsgjTZeHeycylIAjkl8RKlyBQLBY9x3EkoUePxuXHKpXKa1oRltQSgggAnuedwsxx1W9/3tfX59kT9u5gx8DAwAvmzJkTAMCSGI+PJyJdKqnUAWoZQaJPrZsAQFu7gpmvDoKgLcstpz5qHdaBUup6AHiHzi1Jper7/umtcrmlBCkWiy93HOfnkrAgBpyTfN9vlypOrRrDtu7Xdd03CwlinHiqUqn0r1+//g+tcrKlBIk+tU5n5m/FALC1Wq2WRkZGHmkVQLbf9BAoFov9juMMAcAeul6Y+ZQgCOQro2XScoJEJPkaM78tBoUHK5XKwa1YoLVsVLqg46jevAQbxhV4vYGItJ9dWcKTC4JEYI0AgGQ7mSbRAZGcrHZdJsEsJ0OGfTme532fmU+I6fORSqVSzMOPYi4IIiBF23xS43BaTt8IxCuI6JIMB9F2lRICrutehYjnxajfHoWT5GKbPzcEiT61zmHmL9YZl3OJSFfiLaWhtGpNI+C67kWI+Pk4vfKpHQTBN0z3m1RfrggiTiil/l2K7cQ4VGXmM4IgkGA2K22GQFQ3RQqeOjGmX0VEF+TJrdwRRMq4zZ079w5ElATPOqlIhvQgCCTo0UqbIOC67smIKD9supNy8eLOvr6+Y1evXi0poXIjuSOIILN06dIX9fb2/jcAxGWCH0fEE3zfvzM3SFpDYhFwXfdoRLwFAHpjHnqwp6fnkKGhoefyBmMuCSIgRalLJe5/7xjQxpn5VPsmyduU2tWe6M1xYx1ySPLAg4lI8u7mTnJLEEFKKeVG1YR0iefkEfnckkWdXZPkbmr9MfXs26LMmnGfVc8w88o8B6bmmiAy5qVS6bVhGErFqriCmCEzXxAEwTU5nCNda1K0WyXXGuIW5KOI+PosMpPMZhByTxBxznXdIxFRojmn1V+fdL5bSiDPZrCzaCulsDdt2vQvdc45xIyxMAyPLpfLkqMg19IWBJlCEglcrFda+eaxsbEzN2zYsC3XqHeocRIRUa1Wv17nhFw8Hw3D8Ph2IIcY2zYEmfK5dVtMMuzJabehUCicvG7dOm0JuA6dmy13Kwo8lMDCuNgqsfEZRDw6759VU8FsK4JMWbjfXmd3Sx57jpnPCoJACs5bSRmBKGT9hrio3Kj73zPz0XlekOtgajuCiBPRFrC8SRpVzL2ut7f3vWvXrh1LeY50pfroJqCUPjunAQCSpOO4vG7l1rO9LQkiDkWHifJKb5SC8iHHcc4YHh6WaGErhhCIgkslZirumuxkT3f29PScmsdDwGagaFuCiHMSljJv3jz5BXtXA2flvOQzzz333Mc3btw43gww9hk9ApKaZ3x8/COIKAVt4s43Jhtf1dfX9968hY/MZGzbmiCTjrquezYiXltvGzh69mFm/rsgCH46E5Dss/+LQJTUTYJJFzfARELW/z5PUblJx7AjCCLOu66romC4hU2A8S3Hcf4xjcLzTfTddo9EuXI/G5cOtMahR6IQoFzc55gt2B1DEAEiSpl/NQA0k+NXfuU+s2PHjivtuYl+GkV4vh8ALm7i7SxKvlipVC7Kw03A2RJjsn1HEWTKJ9dbEFEuVr2oCaCeAIBP9/b2Xmt3u/70KbU7AEjKJbnBOa0+hwbTp6JPqpYmWGhirGf8SEcSRFAolUovq1arVyPiKU2iIlGlV8ydO/f6NWvWjDbZpqMek5PwSqXyTkR8X0zZs2n+MvONExMTF7YyNU+ag9CxBJkETSn1RgCQQMaXNwnkVgC4vqen5wtDQ0O/abJNWz8W1SG/KEretmeTzjzGzOd2+nWDjifI5NpkbGzsg4gokyDu0k7tvJAqqreFYXj9okWLblu1alW1yYnTFo+tXLmyZ3R09PiIFEcDQKFJw3cw85UTExOXd9JaI873riDIlLfJIgCQEOyTmpwMk4/9FgBudBzn28PDw8MzbJurx5VSg8wsazRJ5/lnMzFO0i+FYXhx1iUIZmKj6We7iiCT4HmedwgzSw28IxIAulmSbjuOczszryGiSgIdmTVRSkkdlkMB4FgAkOIzr0zQ+Z3M/OEsKzslsDGVJl1JkClvFCHIx6IJlARguUN9NzPfXSgU1gwPD8vef5hEkak2ch9jy5YtA7LrzcyvAwD515dEv1STFWK0S2h6Eh8btelqgkyCUywWVxQKhYuZWRb0cTfgGmEpfxfC/IyZJe5LyPIAIj6U1lsmygAjAZtCiKWIWJT73UkJETnryqNlAAACRElEQVQoa62bEPGKdgpLb2ZwkjxjCTIFNaXUIrkJx8xy0PjiJIBq2siEk90wqfkt5cMkOcFTAPBk9G8rIu6sVqvjjuP8MU4sDMPdCoXCbswsGwpyH/8l0T85k3gFMy9ARPlU2ncGi+tG7og9X0XEa3zf39zo4W75uyWIZqQXL1682/z5898kcVtRtHCn4hQi4n/JTt2OHTtutrUhp0+GTh14Yz9wg4OD+1ar1dNk5wcABo0pbp0iqSYsn4HfDsNwla1NX38gLEFmMFGjoL3jAOAYADgSACQkox3kedlIQMTbHce51QZpNj9kliDNY7XLk/IZ1tfXd6jjOH+JiLJjJIvjegklEvaUqNk2RJTCNPeFYXjvjh077rOfT4lwbK+kDclczKZVdDI9wMwHOY4j/5WdpQMb3J03YdzjiChXWh8Iw3C94zgjCxYsWN9pJ/8mgEqiw75BkqA2gzb9/f177L777q8Mw3By50lSqcqulOxIyT9560hNFNmxmqyNIrtZOwFA/vv8lF2vpxDx8TAMH3UcZ8v27dt/ZUP1ZzAYCR61BEkAmm3SPQhYgnTPWFtPEyBgCZIANNukexCwBOmesbaeJkDAEiQBaLZJ9yBgCdI9Y209TYCAJUgC0GyT7kHAEqR7xtp6mgABS5AEoNkm3YOAJUj3jLX1NAECliAJQLNNugcBS5DuGWvraQIELEESgGabdA8CliDdM9bW0wQIWIIkAM026R4ELEG6Z6ytpwkQsARJAJpt0j0IWIJ0z1hbTxMg8D9C1ZR9VpkFkAAAAABJRU5ErkJggg==;" parent="1" vertex="1">
          <mxGeometry x="-174" y="-1047.5" width="95" height="95" as="geometry" />
        </mxCell>
        <mxCell id="nVp2ok_ncySKa2qWnjkd-19" value="&lt;div&gt;&lt;font size=&quot;1&quot; style=&quot;&quot;&gt;&lt;b style=&quot;font-size: 22px;&quot;&gt;A 32-bit embedded-class&amp;nbsp; &amp;nbsp; &amp;nbsp; &amp;nbsp; &amp;nbsp; &amp;nbsp; &amp;nbsp; &amp;nbsp; &amp;nbsp; &amp;nbsp;processor&lt;/b&gt;&lt;/font&gt;&lt;/div&gt;" style="text;html=1;strokeColor=none;fillColor=none;align=center;verticalAlign=middle;whiteSpace=wrap;rounded=0;fontFamily=Helvetica;fontSize=12;fontColor=#303030;fontStyle=2" parent="1" vertex="1">
          <mxGeometry x="-590.5" y="-940" width="501" height="30" as="geometry" />
        </mxCell>
        <mxCell id="7HLSnixBsMs9soIqX_wQ-3" value="" style="shape=image;verticalLabelPosition=bottom;labelBackgroundColor=default;verticalAlign=top;aspect=fixed;imageAspect=0;image=https://riscv.org/wp-content/uploads/2015/11/logo.png;clipPath=inset(27.66% 12.67% 28.72% 29.33%);" vertex="1" parent="1">
          <mxGeometry x="-312" y="-936" width="106.1" height="25" as="geometry" />
        </mxCell>
      </root>
    </mxGraphModel>
  </diagram>
</mxfile>
